# xmcd CD database file
#
# Track frame offsets:
#	150
#	21025
#	54658
#	79878
#	112280
#	143345
#
# Disc length: 2218 seconds
#
# Revision: 0
# Processed by: cddbd v1.4PL0 Copyright (c) Steve Scherf et al.
# Submitted via: CDex 1.50Beta7
#
DISCID=4a08a806
DTITLE=Elvin Jones - Reunited
DYEAR=1982
DGENRE=Jazz
TTITLE0=Little Rock's Blues
TTITLE1=Hip Jones
TTITLE2=Korina
TTITLE3=For Tomorrow
TTITLE4=Sweet and Lovely
TTITLE5=Origin
EXTD=YEAR: 1982
EXTT0=
EXTT1=
EXTT2=
EXTT3=
EXTT4=
EXTT5=
PLAYORDER=
